# xmcd
#
# Track frame offsets: 
#        187
#        30000
#        47705
#        65577
#        88887
#        112802
#        133847
#        154832
#        173125
#        194580
#        210165
#        239100
#
# Disc length: 3449 seconds
#
# Revision: 4
# Processed by: cddbd v1.5.2PL0 Copyright (c) Steve Scherf et al.
# Submitted via: ExactAudioCopyFreeDBPlugin 1.0
#
DISCID=a20d770c
DTITLE=Omar - There's Nothing Like This
DYEAR=1991
DGENRE=R&B
TTITLE0=There's Nothing Like This
TTITLE1=Don't Mean A Thing
TTITLE2=You And Me
TTITLE3=Positive
TTITLE4=I'm In Love
TTITLE5=Meaning Of Life
TTITLE6=Stop Messing Around
TTITLE7=Serious Style
TTITLE8=I Don't Mind The Waiting
TTITLE9=Fine (Acapella)
TTITLE10=There's Nothing Like This (Remix)
TTITLE11=Walk In the Park
EXTD=
EXTT0=
EXTT1=
EXTT2=
EXTT3=
EXTT4=
EXTT5=
EXTT6=
EXTT7=
EXTT8=
EXTT9=
EXTT10=
EXTT11=
PLAYORDER=
